# xmcd
#
# Track frame offsets:
#	150
#	13584
#	24846
#	36567
#	49944
#	61801
#	76282
#	89296
#	101633
#	114018
#	126657
#	140349
#	152352
#	164838
#	177513
#	192102
#	204798
#	216712
#	230452
#	244081
#	257074
#	270533
#	283337
#	297401
#	310649
#	324120
#	337365
#
# Disc length: 4651 seconds
#
# Revision: 1
# Processed by: cddbd v1.5.2PL0 Copyright (c) Steve Scherf et al.
# Submitted via: audiograbber 1.83.01
#
DISCID=8d12291b
DTITLE=Various Artist - Dim Lights, Thick Smoke And Hillbilly Music 1947
DYEAR=2008
DGENRE=Country
TTITLE0=Tex Williams - Smoke, Smoke, Smoke (That Cigarette)
TTITLE1=Eddy Arnold - It's A Sin
TTITLE2=Bob Wills - Sugar Moon
TTITLE3=Sons Of The Pioneers - Cigarettes, Whisky And Wild, Wild Women
TTITLE4=Billy Hughes - Cocaine Blues
TTITLE5=Maddox Brothers and Rose - Milk Cow Blues
TTITLE6=Moon Mullican - Foggy River
TTITLE7=Ernest Tubb - I'll Step Aside
TTITLE8=Roy Acuff - Blue Eyes Crying In The Rain
TTITLE9=The Delmore Brothers - Freight Train Boogie
TTITLE10=Merle Travis - So Round, So Firm, So Fully Packed
TTITLE11=Cowboy Copas - Signed, Sealed And Delivered
TTITLE12=Eddy Arnold - I'll Hold You In My Heart (Till I Can Hold You In My Arm
TTITLE12=s)
TTITLE13=Hank Williams - Move It On Over
TTITLE14=Red Foley - Never Trust A Woman
TTITLE15=Clyde Moody - Shenandoah Waltz
TTITLE16=Jack Guthrie - Oakie Boogie
TTITLE17=Moon Mullican - New Pretty Blonde (New Jole Blon)
TTITLE18=Bill Carlisle - Rockin' Chair Money
TTITLE19=The Cumberland Mountain Folks - The Tramp On The Street
TTITLE20=Hawkshaw Hawkins - Sunny Side Of The Mountain
TTITLE21=Fairley Holden - Keep Them Cold Icey Fingers Off Of Me
TTITLE22=Bill Monroe - Blue Moon Of Kentucky
TTITLE23=Charlie Monroe - Bringin' In The Georgia Mail
TTITLE24=The Bailes Brothers - Dust On The Bible
TTITLE25=Carl Story - I've Found A Hiding Place
TTITLE26=Chet Atkins - Canned Heat
EXTD=
EXTT0=
EXTT1=
EXTT2=
EXTT3=
EXTT4=
EXTT5=
EXTT6=
EXTT7=
EXTT8=
EXTT9=
EXTT10=
EXTT11=
EXTT12=
EXTT13=
EXTT14=
EXTT15=
EXTT16=
EXTT17=
EXTT18=
EXTT19=
EXTT20=
EXTT21=
EXTT22=
EXTT23=
EXTT24=
EXTT25=
EXTT26=
PLAYORDER=
